   <svg xmlns="http://www.w3.org/2000/svg" width="208.898" height="339.451" viewBox="0 0 208.898 339.451"><defs><style>.a{fill:#fff;}.b{fill:#b3b3b3;}.c{fill:#85807f;}.d{fill:#211715;}.e{fill:#3d8dcc;}</style></defs><path class="a" d="M104.684,261.561A435.7,435.7,0,0,1,88.3,219.336a453.087,453.087,0,0,1-15.409-58.211l.862-.618c-.728-1.962.213-4.682,1.492-6.163,2.173-2.517,4.912-6.157,7.132-8.642.944.764,20.185,15.934,21.644,16.969h3.389c1.459-1.035,20.7-16.2,21.643-16.969,2.221,2.485,4.959,6.125,7.132,8.642,1.28,1.481,2.221,4.2,1.493,6.163l.5.363c-4.109,19.555-8.98,39.817-15.518,58.344-5.407,15.321-8.9,26.65-15.877,42.347Z"/><path class="a" d="M153.771,80.6a7.516,7.516,0,0,1,5.431-1.988,6.973,6.973,0,0,1,6.263,3.479c2.128,3.69,2.038,10.49.609,14.7-1.011,2.979-2.668,7.537-6.663,10.806a8.279,8.279,0,0,1-6.385,1.843l-.613-.1a48.562,48.562,0,0,1-2.2,5.963c-1.586,4.3-10.184,19.15-21.164,25.449V145.7c-.944.764-20.184,15.934-21.643,16.969h-3.389c-1.459-1.035-20.7-16.2-21.644-16.969,0,0,0-2.206,0-5.034a45.147,45.147,0,0,1-12.6-10.889,57.119,57.119,0,0,1-10.841-20.454A8.117,8.117,0,0,1,52.02,107.6c-4-3.269-5.652-7.827-6.664-10.806-1.428-4.208-1.518-11.008.61-14.7a6.971,6.971,0,0,1,6.262-3.479A7.513,7.513,0,0,1,57.659,80.6s-10.052-48.13,48.056-48.13S153.771,80.6,153.771,80.6Z"/><path class="b" d="M106.785,261.561c6.973-15.7,10.47-27.026,15.877-42.347,7.3-20.691,12.524-43.544,16.931-65.163,1.651.405,7.552,1.836,7.552,1.836a33.884,33.884,0,0,1,7.545,5.894,208.64,208.64,0,0,1,29.8,13.282,33.106,33.106,0,0,1,10.459,10,47.427,47.427,0,0,1,7.335,17.1c1.688,7.565,3.311,25.238,3.629,36.113.635,22.135.559,36.519-2.171,55.245-1.075,7.378-2.686,16.554-5.69,23.374a29.827,29.827,0,0,1-12.981,14.734c-12.191,7.05-29.053,4.9-42.461,3.816a129.683,129.683,0,0,1-37.6-9.619,241.46,241.46,0,0,1-25.272,6.735c-12.169,2.215-26.9,5.833-39.139,4.057S17.636,329.394,11.617,318.6c-5.043-9.056-7.148-21.707-7.751-32.046-.932-16.171-1.042-30.423-.658-47.5.318-14.625,1.37-30.456,4.539-40.784a45.454,45.454,0,0,1,7.9-15.228,40.962,40.962,0,0,1,14.132-10.777c9.129-3.954,18-7.387,27.324-10.843a33.762,33.762,0,0,1,7.177-5.525l7.595-.274A447.356,447.356,0,0,0,88.3,219.336a435.7,435.7,0,0,0,16.384,42.225Z"/><path class="c" d="M157.647,33.091a42.974,42.974,0,0,0-8.266-9.7l-7.674-6.822C131.758,5.485,118.535,2.421,105.5,2.421a59.069,59.069,0,0,0-36.56,12.017,53.366,53.366,0,0,0-10.3,10.73c-6.68,6.538-12.009,20.82-11.61,34.984a74.286,74.286,0,0,0,2.334,19.012,8.749,8.749,0,0,1,2.865-.551A7.513,7.513,0,0,1,57.659,80.6l2.153,1.509a80.071,80.071,0,0,1,.939-8.634c1-6.069,7.3-8.867,9.973-14.284,1.541-3.121,2.458-6.769,5.1-8.99,1.986-1.672,4.635-2.239,7.192-2.508,3.959-.417,17.351.18,21.829,1.007,3.789.213,7.462.97,12.866,1.658,2.931.373,8.367,1.332,10.446,1.749,8.176,1.88,11.309,3.921,15.416,9.484,1.573,2.133,3.249,6.024,4.8,11.088l5.4,7.921a7.516,7.516,0,0,1,5.431-1.988,8.881,8.881,0,0,1,2.664.476,61.708,61.708,0,0,0,2.264-18.937C163.6,47.637,161.539,39.533,157.647,33.091Z"/><path class="d" d="M56.942,23.471c-4.75,4.717-7.711,11.146-9.654,17.466a67.929,67.929,0,0,0-2.537,23.5,73.878,73.878,0,0,0,2.105,14.639c.763,2.991,5.394,1.723,4.628-1.276A73.508,73.508,0,0,1,49.543,54.8a53.163,53.163,0,0,1,5.382-20.153,29.694,29.694,0,0,1,5.411-7.777c2.2-2.179-1.2-5.574-3.394-3.394Z"/><path class="d" d="M143.4,14.873C134.744,5.32,122.673.905,110.016.151c-12.8-.764-26.1,1.3-37.262,7.861A43.248,43.248,0,0,0,63.7,14.869a68.274,68.274,0,0,0-7.128,9.088,2.422,2.422,0,0,0,.861,3.284,2.448,2.448,0,0,0,3.283-.861,64.88,64.88,0,0,1,5.812-7.525,35.739,35.739,0,0,1,6.9-5.623,51.332,51.332,0,0,1,16.38-6.8,71.58,71.58,0,0,1,17.952-1.575A54.561,54.561,0,0,1,123.766,7.53,38.6,38.6,0,0,1,140.01,18.267c2.079,2.294,5.465-1.109,3.394-3.394Z"/><path class="d" d="M164.335,79.079a70.239,70.239,0,0,0,2.237-15.2,87.915,87.915,0,0,0-1.024-14.493c-1-6.875-3.078-13.681-7.08-19.429a49.1,49.1,0,0,0-7.39-8.258c-2.283-2.072-5.688,1.313-3.394,3.394,4.39,3.983,8.062,8.449,10.24,13.853,2.906,7.212,3.751,15.273,3.856,22.988A62.857,62.857,0,0,1,159.706,77.8c-.734,3,3.893,4.279,4.629,1.276Z"/><path class="d" d="M105.479,46.387a90.286,90.286,0,0,0-11.91-1.063,68.8,68.8,0,0,0-10.961.015c-3.067.357-6.09,1.107-8.485,3.166-2.06,1.771-3.212,4.268-4.249,6.717A21.022,21.022,0,0,1,66.535,61.1c-1.538,1.765-3.3,3.329-4.775,5.147a15.239,15.239,0,0,0-3.472,7.523c-.482,3.122-.717,6.255-.964,9.4a2.42,2.42,0,0,0,2.4,2.4,2.448,2.448,0,0,0,2.4-2.4c.343-4.365.069-9.579,2.807-13.244,2.645-3.54,6.288-6.081,8.187-10.2.987-2.14,1.714-4.468,3.082-6.411,1.418-2.013,3.689-2.765,6.033-3.123A53.837,53.837,0,0,1,92.27,50.07c2.342.089,4.684.217,7.02.4,1.013.08,2.024.17,3.034.281.2.023,1.209.149.745.085q.568.078,1.134.179a2.468,2.468,0,0,0,2.953-1.676,2.421,2.421,0,0,0-1.677-2.952Z"/><path class="d" d="M127.515,54.422a37.478,37.478,0,0,1,6.948,2.182A19.613,19.613,0,0,1,137.1,58.16c.454.314-.018-.035.309.232.173.141.345.285.513.433.4.353.789.724,1.162,1.108a20.862,20.862,0,0,1,3.762,5.082,48.608,48.608,0,0,1,3.207,8.3c.908,2.943,5.543,1.688,4.628-1.276a55.463,55.463,0,0,0-3.69-9.45,26.724,26.724,0,0,0-4.513-6.053c-3.714-3.829-8.6-5.564-13.688-6.745-3.006-.7-4.289,3.929-1.276,4.628Z"/><path class="d" d="M120.317,48.787c-.747-3.178-3.234-5.889-5.736-7.836a28.923,28.923,0,0,0-14.25-5.591,2.411,2.411,0,0,0-2.4,2.4,2.462,2.462,0,0,0,2.4,2.4,27.509,27.509,0,0,1,6.575,1.773c-.348-.143.271.121.335.15q.384.176.762.363.676.336,1.332.715.623.361,1.223.762.31.207.614.425c.089.064.584.437.177.122a18.522,18.522,0,0,1,1.873,1.667q.371.38.719.78c.127.148.244.31.376.454.111.14.07.085-.125-.164.064.085.127.17.189.256a13.059,13.059,0,0,1,.977,1.611c.031.063.188.306.165.353,0,0-.2-.6-.059-.117.077.252.164.495.224.753a2.4,2.4,0,0,0,4.629-1.276Z"/><path class="d" d="M59.356,78.9a10.56,10.56,0,0,0-11.672-1.61,10.282,10.282,0,0,0-5.168,7.167,26.866,26.866,0,0,0,4.119,20.7c2.907,4.248,7.055,7.321,12.408,6.59a2.414,2.414,0,0,0,1.676-2.952,2.464,2.464,0,0,0-2.952-1.676c-3.769.514-6.676-3.527-8.209-6.407a23.179,23.179,0,0,1-2.77-9.036,20.19,20.19,0,0,1,.21-5.26,12.352,12.352,0,0,1,.627-2.3,6.771,6.771,0,0,1,.5-.956c.053-.088.5-.717.17-.3a5.506,5.506,0,0,1,7.67-.569c2.286,2.068,5.691-1.316,3.394-3.394Z"/><path class="d" d="M155.468,82.3a5.451,5.451,0,0,1,4.684-1.19,4.542,4.542,0,0,1,2.986,1.759c-.333-.421.118.208.171.3a6.987,6.987,0,0,1,.5.956,12.352,12.352,0,0,1,.627,2.3,20.19,20.19,0,0,1,.21,5.26,23.179,23.179,0,0,1-2.77,9.036c-1.533,2.88-4.44,6.921-8.209,6.407a2.482,2.482,0,0,0-2.952,1.676,2.416,2.416,0,0,0,1.676,2.952c8.747,1.195,13.832-7.417,16.1-14.623a25.22,25.22,0,0,0,.7-11.279c-.485-3.13-1.779-6.137-4.446-7.983A10.479,10.479,0,0,0,152.074,78.9c-2.3,2.077,1.108,5.463,3.394,3.394Z"/><path class="d" d="M151.006,105.17a57.383,57.383,0,0,1-3.281,9.944c.285-.7.038-.089-.04.081-.091.2-.181.394-.274.59-.244.512-.5,1.018-.767,1.519-.581,1.1-1.2,2.177-1.847,3.239a59.839,59.839,0,0,1-12.947,15.385,23.81,23.81,0,0,1-9.581,4.972c-3.009.695-1.735,5.324,1.276,4.629,7.311-1.687,13.39-7.039,18.157-12.592a65,65,0,0,0,10.127-15.319c.122-.271.238-.544.353-.818.028-.067.4-.955.252-.618-.158.366.05-.1.087-.181.137-.307.266-.618.4-.928q.294-.708.565-1.426a47.609,47.609,0,0,0,2.154-7.2,2.461,2.461,0,0,0-1.677-2.953,2.424,2.424,0,0,0-2.952,1.677Z"/><path class="d" d="M55.658,106.275a60.212,60.212,0,0,0,8.477,19.943c4.351,6.544,10.075,12.673,17.006,16.51a33.551,33.551,0,0,0,11.338,3.859,2.479,2.479,0,0,0,2.952-1.677,2.418,2.418,0,0,0-1.676-2.952c-14.22-2.1-24.811-14.371-30.262-26.976A56.758,56.758,0,0,1,60.287,105c-.682-3.012-5.311-1.737-4.629,1.276Z"/><path class="d" d="M154.533,164.265a178.7,178.7,0,0,1,26.743,11.783,36.034,36.034,0,0,1,15.672,17.421c3.035,6.625,4.012,14.007,4.886,21.174.964,7.9,1.717,15.856,1.985,23.812.6,17.933.272,35.81-2.274,53.594-1.351,9.437-3.23,19.493-8.713,27.508-4.854,7.095-12.522,11.029-20.764,12.791-8.661,1.853-17.679,1.555-26.461.928a108.329,108.329,0,0,1-28.907-6.268q-3.189-1.141-6.327-2.424a2.416,2.416,0,0,0-2.952,1.677,2.459,2.459,0,0,0,1.676,2.952,119.842,119.842,0,0,0,29.752,8.236,117.788,117.788,0,0,0,27.916.57c9.2-1.043,18.371-3.819,25.282-10.248,7.229-6.723,10.684-16.428,12.66-25.871a207.27,207.27,0,0,0,3.609-28.29c.632-9.283.669-18.591.485-27.891-.171-8.694-.674-17.336-1.589-25.985-.8-7.609-1.537-15.467-3.841-22.8a50.532,50.532,0,0,0-5.807-12.254,39.84,39.84,0,0,0-9.5-9.9,65.25,65.25,0,0,0-11.078-6.363q-6.8-3.342-13.866-6.086c-2.419-.946-4.858-1.839-7.31-2.7a2.4,2.4,0,0,0-1.276,4.629Z"/><path class="a" d="M133.975,304.627a22.061,22.061,0,0,1-6.833-1.012,232.242,232.242,0,0,0-9.016-29.4,5.158,5.158,0,0,0-.4-.8l1.692-.75c6.479-2.873,10.218-3.892,16.982-5.844,6.052-1.754,12.52-3.574,20.863-3.585a35.347,35.347,0,0,1,10.992,2.224c-2.585,13.311-5.926,27.251-9.229,38.063l-.239.027A189.329,189.329,0,0,1,133.975,304.627Z"/><path class="a" d="M34.866,260.655a11.455,11.455,0,0,1-1.639-2.594,4.217,4.217,0,0,1,.653-4.454,5.387,5.387,0,0,1,4.8-1.582l.953.16-.963-2.046a5.147,5.147,0,0,1,.779-5.7,6.187,6.187,0,0,1,5.006-1.52,10.659,10.659,0,0,1,5.649,2.648c8.208,7.267,23.316,22,30.949,29.7l2.436,2.3c-12.976,3.084-26.268,6.193-37.872,9.045l-.781-.839a100.686,100.686,0,0,1-9.794-10.548,11.724,11.724,0,0,1-2.116-3.41,4.909,4.909,0,0,1,.712-4.276c1.7-1.89,3.92-1.525,6.963-.986C38.552,264.368,36.419,262.568,34.866,260.655Z"/><path class="d" d="M42.426,289.872c13.946-3.477,27.948-6.727,41.931-10.051q10.554-2.51,21.09-5.1,2.514-.622,5.025-1.256c1.245-.314,2.43-.742,3.674-.191a4.438,4.438,0,0,1,2.171,2.875q.924,2.406,1.768,4.843c2.471,7.107,4.54,14.356,6.351,21.657q.642,2.594,1.237,5.2a46.281,46.281,0,0,1,1.065,4.862c.335,2.916-2.43,3.759-4.62,4.619a290.635,290.635,0,0,1-35.345,11.206c-5.473,1.373-11.027,2.349-16.566,3.407-7.249,1.383-14.57,2.68-21.971,2.747-11.977.108-25.163-3.929-32.454-14.019-3.93-5.439-5.966-11.97-7.349-18.468a149.866,149.866,0,0,1-2.57-21.056,431.555,431.555,0,0,1-.643-47.32,193.857,193.857,0,0,1,2.118-22.643c1.026-6.4,2.41-12.864,5.229-18.738a37.5,37.5,0,0,1,14.021-15.695,70.287,70.287,0,0,1,10.161-4.988c3.475-1.481,7-2.845,10.535-4.174,3.617-1.36,7.249-2.678,10.874-4.016a2.465,2.465,0,0,0,1.677-2.952,2.421,2.421,0,0,0-2.953-1.677c-7.7,2.843-15.429,5.617-22.977,8.854a65.826,65.826,0,0,0-10.467,5.278,44.69,44.69,0,0,0-8.954,7.642c-9.849,11.19-11.975,27.1-13.29,41.383a363.359,363.359,0,0,0-.675,49.451c.349,7.771.8,15.574,1.827,23.288a79.669,79.669,0,0,0,5.491,21.5,36.175,36.175,0,0,0,12.5,15.3A44.968,44.968,0,0,0,38.465,338.7c7.668,1.311,15.365.734,23.019-.392,7-1.031,14.006-2.383,20.935-3.831a265.652,265.652,0,0,0,35.741-10.548c2.9-1.049,5.841-2.089,8.654-3.358a8.211,8.211,0,0,0,4.6-8.848c-.591-3.616-1.566-7.214-2.453-10.767q-1.443-5.787-3.131-11.509c-1.086-3.667-2.251-7.312-3.533-10.915-1.177-3.311-2.088-7.156-5.259-9.131-3.323-2.069-6.856-.8-10.329.066q-5.295,1.323-10.6,2.605c-14.974,3.629-29.986,7.1-44.961,10.721q-5,1.211-10,2.452c-3,.747-1.727,5.377,1.276,4.629Z"/><path class="d" d="M160.618,306.493a368.8,368.8,0,0,0,12.264-53.4c.744-4.664,1.4-9.345,1.89-14.043a2.416,2.416,0,0,0-2.4-2.4,2.454,2.454,0,0,0-2.4,2.4c-1.846,17.687-5.587,35.311-10.069,52.5-1.2,4.586-2.479,9.151-3.914,13.669-.937,2.951,3.7,4.214,4.629,1.276Z"/><path class="d" d="M125.783,305.626a17.437,17.437,0,0,0,6.341,1.3c2.949.221,5.916.218,8.871.161,5.936-.114,11.894-.451,17.793-1.129a2.473,2.473,0,0,0,2.4-2.4,2.415,2.415,0,0,0-2.4-2.4c-5.684.654-11.421.984-17.14,1.115-2.916.067-5.841.08-8.753-.1-.582-.035-1.164-.078-1.744-.135q-.4-.039-.793-.087c-.181-.023-.146-.017.1.016-.135-.02-.269-.04-.4-.062-.418-.073-.835-.146-1.247-.252-.2-.05-.389-.122-.586-.17-.628-.155.295.152-.02,0a2.464,2.464,0,0,0-3.284.861,2.423,2.423,0,0,0,.861,3.284Z"/><path class="d" d="M120.63,274.74A138.5,138.5,0,0,1,142.6,267.6a61,61,0,0,1,11.848-1.89,28.436,28.436,0,0,1,6.7.3,48.184,48.184,0,0,1,6.535,1.791c2.933.991,4.192-3.644,1.276-4.629a38.264,38.264,0,0,0-14.056-2.281A66.659,66.659,0,0,0,141.7,262.88a144.412,144.412,0,0,0-23.489,7.715,2.416,2.416,0,0,0-.861,3.284,2.459,2.459,0,0,0,3.283.861Z"/><path class="d" d="M82.751,273.563q-12.106-12.2-24.668-23.957c-1.879-1.755-3.769-3.5-5.688-5.212-2.493-2.226-5.57-4.067-9.038-3.911-3.441.154-6.531,2.069-7.389,5.542-.946,3.83,1.356,6.984,3.958,9.506,5.1,4.941,10.143,9.941,15.243,14.882,2.219,2.151,5.617-1.239,3.394-3.394-3.965-3.841-7.888-7.723-11.824-11.593-1.128-1.11-2.283-2.189-3.419-3.29a9.436,9.436,0,0,1-2.608-3.317c-.89-2.553,1.547-3.832,3.744-3.5,2.366.353,4.106,2.067,5.8,3.6Q53,251.4,55.7,253.943q5.946,5.58,11.779,11.276,5.985,5.823,11.881,11.738c2.179,2.2,5.573-1.2,3.394-3.394Z"/><path class="d" d="M38.681,249.625a7.385,7.385,0,0,0-7.562,3.887c-1.563,3.374.111,6.55,2.308,9.151,2.146,2.541,4.657,4.833,6.981,7.213,2.367,2.423,4.762,4.818,7.283,7.081,2.294,2.059,5.7-1.325,3.395-3.394-4.059-3.643-7.776-7.633-11.607-11.509-.9-.913-1.831-1.8-2.658-2.785a6.175,6.175,0,0,1-1.54-2.635c-.31-1.943,1.97-2.4,3.4-2.209a2.413,2.413,0,0,0,2.4-2.4,2.46,2.46,0,0,0-2.4-2.4Z"/><path class="d" d="M46.534,284.07a81.138,81.138,0,0,1-8.844-9.38c-.55-.66-1.1-1.324-1.594-2.028a6.311,6.311,0,0,1-.855-1.491c-.026-.076-.136-.714-.1-.363a4.394,4.394,0,0,1,0-.827c-.023.236.1-.448.108-.456.136-.47-.09,0,.171-.39-.211.311.229-.233.306-.293-.236.186.291-.166.353-.194-.35.163.264-.066.346-.086.458-.111-.087-.051.368-.042a17.833,17.833,0,0,1,1.986.131,2.412,2.412,0,0,0,2.4-2.4,2.461,2.461,0,0,0-2.4-2.4c-2.985-.391-6.33.335-7.738,3.319a7.637,7.637,0,0,0-.5,5.044,12.843,12.843,0,0,0,2.7,4.569,77.151,77.151,0,0,0,9.9,10.681,2.458,2.458,0,0,0,3.394,0,2.421,2.421,0,0,0,0-3.394Z"/><path class="e" d="M113.41,245.4c2.138-5.67,4.021-11.121,6.038-16.96-.193-1.293-.346-2.224-.4-2.319-2.109-18.085-4.9-39.625-4.9-40.259a15.006,15.006,0,0,1,.517-3.376q.194-.757.349-1.514c.557-2.51-.09.15.557-2.51,0,0,.776-4.076.821-4.3-3.07-4.137-6.733-8.971-8.98-11.5h-3.389c-2.313,2.6-6.125,7.646-9.249,11.859.164.343.272.567.272.567a33.028,33.028,0,0,1,1.586,5.161,21.5,21.5,0,0,1,1.254,5.979c.018,1.045-2.821,20.781-5.5,39.672l-.63,3.418c3.772,10.618,7.681,20.561,12.932,32.234h2.1C109.383,255.713,111.5,250.471,113.41,245.4Z"/><path class="d" d="M113.406,181.512c-5.014,0-10.029-.1-15.043-.107a2.4,2.4,0,0,0,0,4.8c5.014,0,10.029.1,15.043.107a2.4,2.4,0,0,0,0-4.8Z"/><path class="d" d="M114,173.884c-.476,2-.788,4.018-1.211,6.023-.411,1.947-1.116,3.981-1.045,5.99.047,1.343.311,2.707.475,4.039.872,7.071,1.765,14.139,2.63,21.21q.918,7.488,1.8,14.979a2.473,2.473,0,0,0,2.4,2.4,2.415,2.415,0,0,0,2.4-2.4q-1.485-12.716-3.086-25.417c-.6-4.835-1.439-9.7-1.794-14.565a14.542,14.542,0,0,1,.678-4.15c.5-2.271.845-4.571,1.385-6.833.716-3-3.911-4.284-4.629-1.276Z"/><path class="d" d="M94.7,226.547q1.816-12.793,3.631-25.588.651-4.63,1.284-9.263c.23-1.708.548-3.441.655-5.164a16.279,16.279,0,0,0-.841-5.33,52.709,52.709,0,0,0-2.309-7.316,2.418,2.418,0,0,0-3.284-.861,2.458,2.458,0,0,0-.861,3.283,44.9,44.9,0,0,1,1.76,5.942,12.963,12.963,0,0,1,.743,4.183c-.025.517-.111,1.037-.175,1.549q-.072.584-.149,1.165l-.1.737c-.047.352-.075.562-.072.536-.905,6.723-1.87,13.438-2.825,20.153q-1.044,7.35-2.089,14.7a2.482,2.482,0,0,0,1.676,2.953,2.417,2.417,0,0,0,2.952-1.677Z"/><path class="d" d="M99.241,122.756c.352-.187.707-.365,1.068-.534.084-.039.464-.184.091-.042-.4.152.08-.027.126-.043.262-.093.522-.186.787-.268a16.372,16.372,0,0,1,2.189-.492c-.355.057.058-.007.2-.023.216-.023.431-.043.647-.059.522-.038,1.045-.057,1.568-.06.487,0,.975.008,1.461.036.225.013.449.029.673.05,0,0,.8.1.357.033a13.908,13.908,0,0,1,2.162.487c.3.094.6.21.893.319-.565-.207.006.013.226.129.183.1.362.2.536.308.2.123.808.59.082.024a2.479,2.479,0,0,0,3.394,0,2.415,2.415,0,0,0,0-3.394,15.29,15.29,0,0,0-9.481-2.792,19.527,19.527,0,0,0-9.406,2.176,2.4,2.4,0,0,0,2.423,4.145Z"/><path class="d" d="M105.027,98.959a44.384,44.384,0,0,1,1.041,4.766l-.086-.638a2.832,2.832,0,0,1,.018.657l.086-.638a1.578,1.578,0,0,1-.072.3l.242-.573a1.256,1.256,0,0,1-.105.19l.376-.486a.988.988,0,0,1-.156.154l.486-.376a3.034,3.034,0,0,1-.378.2l.573-.242a2.749,2.749,0,0,1-.636.186l.638-.086a2.537,2.537,0,0,1-.6,0l.638.086c-.225-.032-.446-.086-.671-.117a1.823,1.823,0,0,0-.957-.043,1.794,1.794,0,0,0-.892.285,2.4,2.4,0,0,0-.861,3.284,2.3,2.3,0,0,0,1.434,1.1c.508.068,1,.2,1.519.221a4.85,4.85,0,0,0,2.235-.531,3.214,3.214,0,0,0,1.785-2.121,5.339,5.339,0,0,0-.023-2.289c-.259-1.535-.614-3.057-1.009-4.563a2.4,2.4,0,0,0-4.628,1.276Z"/><path class="d" d="M79.689,85.476c-.8,2.586-.277,8.535,4.622,9.041,6.475-.039,6.82-7.231,4.64-10.613C87.166,81.136,81.918,79.984,79.689,85.476Z"/><path class="d" d="M131.742,85.476c.8,2.586.277,8.535-4.622,9.041-6.475-.039-6.82-7.231-4.64-10.613C124.264,81.135,129.512,79.984,131.742,85.476Z"/><path class="a" d="M82.377,145.7c-2.22,2.485-4.959,6.125-7.132,8.642-1.279,1.481-2.22,4.2-1.492,6.163.835,1.668,10.064,16.466,16.279,20.448,1.963-2.617,10.1-13.907,13.989-18.284C102.562,161.636,83.321,146.466,82.377,145.7Z"/><path class="a" d="M129.053,145.7c2.221,2.485,4.959,6.125,7.132,8.642,1.28,1.481,2.221,4.2,1.493,6.163-.835,1.668-10.064,16.466-16.279,20.448-1.964-2.617-10.1-13.907-13.989-18.284C108.869,161.636,128.109,146.466,129.053,145.7Z"/><path class="d" d="M80.68,144.005c-1.379,1.556-2.678,3.181-3.98,4.8-1.286,1.6-2.763,3.134-3.918,4.832a8.366,8.366,0,0,0-.644,8.893,107.029,107.029,0,0,0,9.6,13.662,32.768,32.768,0,0,0,7.084,6.833,2.46,2.46,0,0,0,3.284-.861c4.469-5.966,8.671-12.206,13.614-17.8a2.447,2.447,0,0,0-.486-3.77c-.308-.22-.607-.454-.907-.684l-.35-.269c.276.212.294.228.032.024l-1-.773q-2.52-1.96-5.03-3.934-5.517-4.327-11.02-8.672c-.963-.76-1.931-1.515-2.887-2.285a2.473,2.473,0,0,0-3.394,0,2.418,2.418,0,0,0,0,3.394c6.127,4.943,12.358,9.766,18.568,14.6,1.18.919,2.344,1.869,3.561,2.74l-.485-3.77c-5.213,5.9-9.651,12.478-14.365,18.77l3.284-.861a14.876,14.876,0,0,1-2.329-1.923c-.979-.941-1.9-1.944-2.784-2.971a85.918,85.918,0,0,1-5.247-6.831c-1.352-1.926-2.658-3.886-3.9-5.887-.35-.566-.732-1.132-1.029-1.728-.033-.065-.079-.127-.106-.195.2.5.057-.172.051-.335a4.521,4.521,0,0,1,.5-2.066c.787-1.63,2.3-3.016,3.429-4.417,1.39-1.73,2.771-3.469,4.243-5.13C86.118,145.1,82.735,141.688,80.68,144.005Z"/><path class="d" d="M127.356,147.4c2.454,2.767,4.93,5.672,7.132,8.642a5.515,5.515,0,0,1,.832,1.668,4.57,4.57,0,0,1,.2.952c.018.208-.037.93,0,.789.065-.231-.125.231-.192.347-.168.3-.345.588-.521.879a103.027,103.027,0,0,1-8.708,12.366c-.984,1.185-2,2.343-3.093,3.434-.5.5-1.016.99-1.553,1.452a7.547,7.547,0,0,1-1.267.954l3.283.861c-4.713-6.292-9.151-12.872-14.364-18.77l-.486,3.77c2.749-1.966,5.365-4.145,8.023-6.23q5.58-4.377,11.146-8.771c.988-.779,1.981-1.553,2.96-2.343a2.415,2.415,0,0,0,0-3.394,2.456,2.456,0,0,0-3.394,0c-6.051,4.882-12.2,9.644-18.337,14.424l-1.152.9-.5.389c-.433.336.34-.259-.064.049-.365.28-.727.566-1.1.834a2.447,2.447,0,0,0-.486,3.77c4.943,5.592,9.145,11.832,13.614,17.8a2.447,2.447,0,0,0,3.283.861c5.114-3.345,8.9-8.88,12.339-13.814,1.407-2.021,2.772-4.076,4.047-6.184a9.54,9.54,0,0,0,1.047-2.042,8.709,8.709,0,0,0-.717-6.143c-.9-1.953-2.6-3.558-3.939-5.22-1.523-1.891-3.025-3.8-4.637-5.619C128.7,141.689,125.312,145.094,127.356,147.4Z"/><path class="d" d="M77.011,71.3a11.421,11.421,0,0,1-1.837,1.794l.486-.376a11.508,11.508,0,0,1-2.5,1.464l.574-.242c-.256.106-.514.2-.777.293a2.551,2.551,0,0,0-1.434,1.1,2.4,2.4,0,0,0,.861,3.284,2.4,2.4,0,0,0,1.849.242,13.6,13.6,0,0,0,6.174-4.168,2.593,2.593,0,0,0,.7-1.7,2.443,2.443,0,0,0-.7-1.7,2.414,2.414,0,0,0-1.7-.7,2.342,2.342,0,0,0-1.7.7Z"/><path class="d" d="M108.858,262.773c5.588-12.608,10.08-25.592,14.606-38.605,4.879-14.025,9.093-28.173,12.553-42.619,1.969-8.222,3.757-16.485,5.461-24.766a2.458,2.458,0,0,0-1.676-2.952,2.424,2.424,0,0,0-2.952,1.676c-3.008,14.612-6.273,29.185-10.341,43.542-3.809,13.442-8.515,26.64-13.234,39.785-2.609,7.269-5.432,14.455-8.562,21.516a2.476,2.476,0,0,0,.861,3.284,2.419,2.419,0,0,0,3.284-.861Z"/><path class="d" d="M69.952,158.431a461.871,461.871,0,0,0,23.282,81.844c2.9,7.59,6.048,15.085,9.378,22.5a2.418,2.418,0,0,0,3.283.861,2.458,2.458,0,0,0,.861-3.284,460.728,460.728,0,0,1-27.187-79.827q-2.823-11.61-4.988-23.368a2.421,2.421,0,0,0-2.952-1.676,2.453,2.453,0,0,0-1.677,2.952Z"/><path class="d" d="M126.893,260.078c5.561-9.394,10.932-18.9,16.335-28.386,6.58-11.548,13.168-23.07,19.028-35.008.98-2,2.422-4.154,2.568-6.412.151-2.33-1.209-4.023-2.689-5.638a42.857,42.857,0,0,0-10.014-8.165v4.145q2.391-1.465,4.845-2.821c1.63-.9,3.386-1.627,4.979-2.578a3.792,3.792,0,0,0,1.718-4.518,21.266,21.266,0,0,0-2.367-4.267,38.171,38.171,0,0,0-12.939-12.616c-2.667-1.573-5.085,2.575-2.423,4.145a32.351,32.351,0,0,1,10.4,9.646c.711,1.042,1.375,2.117,2,3.214q.194.339.382.681c.095.172.19.346.283.52.1.261.137.229.1-.094l.425-.856-.42.206a6.924,6.924,0,0,0-1.045.521q-4.276,2.158-8.358,4.672a2.425,2.425,0,0,0,0,4.145,37.623,37.623,0,0,1,8.163,6.48c.8.824,2.439,2,2.108,3.292a13.672,13.672,0,0,1-1.121,2.367q-.681,1.4-1.371,2.794-5.135,10.383-10.849,20.462-7.947,13.977-15.93,27.932c-2.63,4.583-5.259,9.167-7.951,13.714-1.577,2.665,2.571,5.082,4.145,2.423Z"/><path class="d" d="M63.074,153.814A38.207,38.207,0,0,0,50.135,166.43a21.7,21.7,0,0,0-2.367,4.267,3.788,3.788,0,0,0,1.718,4.518c1.52.916,3.212,1.612,4.773,2.466q2.564,1.4,5.05,2.933v-4.145a42.269,42.269,0,0,0-8.836,6.924c-1.363,1.385-2.955,2.863-3.588,4.744-.691,2.054.028,3.89.921,5.737,3.61,7.468,7.4,14.85,11.455,22.088,5.561,9.929,11.242,19.794,16.9,29.666,2.77,4.829,5.537,9.66,8.373,14.45,1.572,2.656,5.723.244,4.145-2.423-5.27-8.9-10.364-17.907-15.486-26.894-6.116-10.73-12.314-21.413-17.866-32.451q-1.5-2.983-2.96-5.99a5.7,5.7,0,0,1-.974-2.428c.044-.69.712-1.225,1.149-1.706a38.673,38.673,0,0,1,9.186-7.572,2.425,2.425,0,0,0,0-4.145q-3.984-2.442-8.15-4.567-.521-.264-1.044-.523l-.42-.206q-.69-.417.215.753l.008.268q.139-.261.282-.521.236-.429.477-.854c.625-1.1,1.288-2.172,2-3.214a32.351,32.351,0,0,1,10.4-9.646c2.658-1.569.246-5.719-2.423-4.145Z"/></svg>