<svg width="129" height="129" viewBox="0 0 129 129" fill="none" xmlns="http://www.w3.org/2000/svg">
<rect width="129" height="129" fill="white"/>
<path d="M52.674 85.816C49.634 85.816 46.914 85.096 44.514 83.656C42.114 82.216 40.226 80.184 38.85 77.56C37.506 74.904 36.834 71.784 36.834 68.2C36.834 64.584 37.506 61.464 38.85 58.84C40.226 56.184 42.114 54.136 44.514 52.696C46.914 51.224 49.634 50.488 52.674 50.488C55.522 50.488 58.082 51.128 60.354 52.408C62.658 53.688 64.498 55.48 65.874 57.784L60.306 61C59.506 59.592 58.45 58.504 57.138 57.736C55.858 56.968 54.37 56.584 52.674 56.584C50.786 56.584 49.138 57.08 47.73 58.072C46.354 59.032 45.282 60.376 44.514 62.104C43.746 63.832 43.362 65.864 43.362 68.2C43.362 70.504 43.746 72.52 44.514 74.248C45.282 75.976 46.354 77.336 47.73 78.328C49.138 79.288 50.786 79.768 52.674 79.768C54.37 79.768 55.858 79.384 57.138 78.616C58.45 77.816 59.506 76.728 60.306 75.352L65.874 78.568C64.498 80.84 62.658 82.616 60.354 83.896C58.082 85.176 55.522 85.816 52.674 85.816ZM79.836 94.36C77.372 94.36 75.276 93.896 73.548 92.968C71.852 92.072 70.428 90.648 69.276 88.696L74.124 85.48C74.764 86.632 75.532 87.48 76.428 88.024C77.324 88.6 78.46 88.888 79.836 88.888C81.596 88.888 82.876 88.36 83.676 87.304C84.508 86.248 84.924 84.536 84.924 82.168V81.64C83.452 82.888 81.692 83.512 79.644 83.512C77.596 83.512 75.772 83.112 74.172 82.312C72.604 81.48 71.356 80.232 70.428 78.568C69.532 76.904 69.084 74.84 69.084 72.376C69.084 69.912 69.532 67.864 70.428 66.232C71.356 64.568 72.604 63.336 74.172 62.536C75.772 61.704 77.596 61.288 79.644 61.288C81.948 61.288 83.884 62.072 85.452 63.64L85.692 61.864H90.924V82.168C90.924 85.912 90.044 88.872 88.284 91.048C86.556 93.256 83.74 94.36 79.836 94.36ZM80.124 78.28C81.66 78.28 82.908 77.752 83.868 76.696C84.86 75.64 85.356 74.2 85.356 72.376C85.356 70.552 84.86 69.128 83.868 68.104C82.908 67.08 81.66 66.568 80.124 66.568C78.588 66.568 77.388 67.08 76.524 68.104C75.66 69.128 75.228 70.552 75.228 72.376C75.228 74.2 75.66 75.64 76.524 76.696C77.388 77.752 78.588 78.28 80.124 78.28Z" fill="black"/>
</svg>
