<svg width="134" height="134" viewBox="0 0 134 134" fill="none" xmlns="http://www.w3.org/2000/svg">
<rect width="134" height="134" fill="black"/>
<path d="M54.674 83.816C51.634 83.816 48.914 83.096 46.514 81.656C44.114 80.216 42.226 78.184 40.85 75.56C39.506 72.904 38.834 69.784 38.834 66.2C38.834 62.584 39.506 59.464 40.85 56.84C42.226 54.184 44.114 52.136 46.514 50.696C48.914 49.224 51.634 48.488 54.674 48.488C57.522 48.488 60.082 49.128 62.354 50.408C64.658 51.688 66.498 53.48 67.874 55.784L62.306 59C61.506 57.592 60.45 56.504 59.138 55.736C57.858 54.968 56.37 54.584 54.674 54.584C52.786 54.584 51.138 55.08 49.73 56.072C48.354 57.032 47.282 58.376 46.514 60.104C45.746 61.832 45.362 63.864 45.362 66.2C45.362 68.504 45.746 70.52 46.514 72.248C47.282 73.976 48.354 75.336 49.73 76.328C51.138 77.288 52.786 77.768 54.674 77.768C56.37 77.768 57.858 77.384 59.138 76.616C60.45 75.816 61.506 74.728 62.306 73.352L67.874 76.568C66.498 78.84 64.658 80.616 62.354 81.896C60.082 83.176 57.522 83.816 54.674 83.816ZM81.836 92.36C79.372 92.36 77.276 91.896 75.548 90.968C73.852 90.072 72.428 88.648 71.276 86.696L76.124 83.48C76.764 84.632 77.532 85.48 78.428 86.024C79.324 86.6 80.46 86.888 81.836 86.888C83.596 86.888 84.876 86.36 85.676 85.304C86.508 84.248 86.924 82.536 86.924 80.168V79.64C85.452 80.888 83.692 81.512 81.644 81.512C79.596 81.512 77.772 81.112 76.172 80.312C74.604 79.48 73.356 78.232 72.428 76.568C71.532 74.904 71.084 72.84 71.084 70.376C71.084 67.912 71.532 65.864 72.428 64.232C73.356 62.568 74.604 61.336 76.172 60.536C77.772 59.704 79.596 59.288 81.644 59.288C83.948 59.288 85.884 60.072 87.452 61.64L87.692 59.864H92.924V80.168C92.924 83.912 92.044 86.872 90.284 89.048C88.556 91.256 85.74 92.36 81.836 92.36ZM82.124 76.28C83.66 76.28 84.908 75.752 85.868 74.696C86.86 73.64 87.356 72.2 87.356 70.376C87.356 68.552 86.86 67.128 85.868 66.104C84.908 65.08 83.66 64.568 82.124 64.568C80.588 64.568 79.388 65.08 78.524 66.104C77.66 67.128 77.228 68.552 77.228 70.376C77.228 72.2 77.66 73.64 78.524 74.696C79.388 75.752 80.588 76.28 82.124 76.28Z" fill="white"/>
</svg>
